<svg width="48" height="48" viewBox="0 0 48 48" fill="none" xmlns="http://www.w3.org/2000/svg">
<rect width="48" height="48" rx="12" fill="black"/>
<path d="M8.30913 27.6989L10.1786 24.6927L12.6366 20.7402C13.2335 19.7802 13.8854 19.0263 12.8117 18.2488C11.7379 17.4712 10.3936 18.4404 8.7636 16.7687C7.90332 15.8864 7.71339 14.2839 8.48589 13.0416C9.82022 10.8959 12.8719 11.0356 14.1557 13.8217C15.3403 16.3923 16.8502 13.9643 17.3418 13.1738L20.3701 8.30422C20.5594 7.99985 20.9563 7.90858 21.2566 8.10037L28.2503 12.5654C29.6664 13.6273 27.6755 14.8016 26.5837 15.6033C24.4001 17.2067 24.801 19.1456 25.416 19.9852C27.8259 22.5493 30.4823 19.8278 30.2993 17.9756C30.0492 15.443 31.0645 14.5987 31.7015 15.0054L38.3894 19.2753C38.7051 19.4769 38.7895 19.9102 38.5861 20.2271C37.9014 21.2938 36.7084 23.2909 35.4973 25.2384C33.6714 28.1746 36.8163 28.8413 36.7812 28.8978C36.746 28.9543 41.2547 30.2809 39.6574 33.5739C38.6056 35.7423 35.7278 35.7192 33.9018 33.5279C32.441 31.7748 31.7083 32.2853 31.3221 32.9064L27.1 39.6958C26.9107 40.0001 26.5138 40.0914 26.2133 39.8996L18.8919 35.2253C18.7002 35.1029 18.583 34.8857 18.6035 34.6569C18.7951 32.52 20.1592 32.2874 21.5005 31.29C23.1557 30.0592 23.3076 28.251 22.4575 27.2468C21.3459 25.9339 18.4249 25.1456 17.5724 28.7822C16.9151 31.5864 15.8225 33.2657 14.5485 32.4523L8.51033 28.5973C8.20993 28.4055 8.11985 28.0032 8.30913 27.6989Z" fill="white"/>
</svg>
