<svg xmlns="http://www.w3.org/2000/svg" width="20" height="18" viewBox="0 0 20 18" fill="none">
  <path d="M 16 6 L 4 6 L 4 15 C 4 15.265 4.105 15.519 4.293 15.707 C 4.481 15.895 4.735 16 5 16 L 15 16 C 15.265 16 15.519 15.895 15.707 15.707 C 15.895 15.519 16 15.265 16 15 L 16 6 Z M 12 8 C 12.552 8 13 8.448 13 9 C 13 9.552 12.552 10 12 10 L 8 10 C 7.448 10 7 9.552 7 9 C 7 8.448 7.448 8 8 8 L 12 8 Z M 18 3 C 18 2.735 17.895 2.481 17.707 2.293 C 17.519 2.105 17.265 2 17 2 L 3 2 C 2.735 2 2.481 2.105 2.293 2.293 C 2.105 2.481 2 2.735 2 3 C 2 3.265 2.105 3.519 2.293 3.707 C 2.481 3.895 2.735 4 3 4 L 17 4 C 17.265 4 17.519 3.895 17.707 3.707 C 17.895 3.519 18 3.265 18 3 Z M 20 3 C 20 3.796 19.684 4.558 19.121 5.121 C 18.802 5.44 18.417 5.676 18 5.824 L 18 15 C 18 15.796 17.684 16.558 17.121 17.121 C 16.558 17.684 15.796 18 15 18 L 5 18 C 4.204 18 3.442 17.684 2.879 17.121 C 2.316 16.558 2 15.796 2 15 L 2 5.824 C 1.583 5.676 1.198 5.44 0.879 5.121 C 0.316 4.558 0 3.796 0 3 C 0 2.204 0.316 1.442 0.879 0.879 C 1.442 0.316 2.204 0 3 0 L 17 0 C 17.796 0 18.558 0.316 19.121 0.879 C 19.684 1.442 20 2.204 20 3 Z" fill="currentColor" fill-rule="nonzero"></path>
</svg>