<svg xmlns="http://www.w3.org/2000/svg" width="19.194" height="19.890" viewBox="0 0 19.194 19.890" fill="none">
  <path d="M 14.598 7 C 14.598 5.674 14.071 4.402 13.134 3.465 C 12.196 2.527 10.924 2 9.598 2 C 8.272 2 7 2.527 6.063 3.465 C 5.125 4.403 4.598 5.674 4.598 7 L 4.605 7.248 C 4.666 8.484 5.184 9.656 6.063 10.535 C 7 11.473 8.272 12 9.598 12 C 10.924 12 12.196 11.473 13.134 10.535 C 14.071 9.598 14.598 8.326 14.598 7 Z M 14.548 11.95 C 13.625 12.874 12.469 13.51 11.219 13.808 L 12.93 16.771 L 13.699 15.214 C 13.878 14.852 14.257 14.633 14.66 14.659 L 16.394 14.771 L 14.683 11.808 C 14.638 11.855 14.594 11.904 14.548 11.95 Z M 2.8 14.771 L 4.533 14.659 L 4.683 14.66 C 5.028 14.689 5.338 14.897 5.494 15.214 L 6.264 16.77 L 7.974 13.808 C 6.725 13.51 5.571 12.873 4.649 11.95 C 4.602 11.903 4.556 11.854 4.511 11.806 L 2.8 14.771 Z M 16.598 7 C 16.598 8.038 16.366 9.052 15.934 9.974 L 19.06 15.389 C 19.244 15.708 19.239 16.104 19.044 16.417 C 18.85 16.73 18.498 16.91 18.13 16.887 L 15.196 16.697 L 13.895 19.333 C 13.731 19.664 13.399 19.878 13.03 19.89 C 12.662 19.902 12.316 19.709 12.132 19.39 L 9.597 14.998 L 7.063 19.389 C 6.878 19.708 6.533 19.9 6.164 19.889 C 5.796 19.877 5.463 19.663 5.3 19.332 L 3.996 16.698 L 1.065 16.888 C 0.697 16.911 0.345 16.731 0.151 16.418 C -0.044 16.105 -0.05 15.709 0.134 15.39 L 3.261 9.972 C 2.877 9.153 2.652 8.262 2.607 7.347 L 2.598 7 C 2.598 5.143 3.336 3.363 4.649 2.05 C 5.961 0.737 7.742 0 9.598 0 C 11.454 0 13.235 0.737 14.548 2.05 C 15.861 3.363 16.598 5.143 16.598 7 Z" fill="currentColor" fill-rule="nonzero"></path>
</svg>