<svg xmlns="http://www.w3.org/2000/svg" width="18.000" height="20" viewBox="0 0 18.000 20" fill="none">
  <path d="M 7 16 C 7 16.53 7.211 17.039 7.586 17.414 C 7.961 17.789 8.469 18 9 18 L 9.197 17.99 C 9.655 17.945 10.086 17.742 10.414 17.414 C 10.789 17.039 11 16.53 11 16 L 7 16 Z M 9 2 C 8.735 2 8.48 2.105 8.293 2.293 C 8.105 2.481 8 2.735 8 3 L 7.989 3.144 C 7.942 3.472 7.733 3.76 7.428 3.904 C 6.443 4.37 5.604 5.094 5 6 C 4.398 6.902 4.053 7.951 4 9.034 L 4 12 C 4 12.04 3.998 12.08 3.993 12.12 C 3.913 12.783 3.699 13.422 3.369 14 L 14.631 14 C 14.3 13.422 14.087 12.783 14.007 12.12 C 14.002 12.08 14 12.04 14 12 L 14 9.034 C 13.947 7.951 13.602 6.902 13 6 C 12.396 5.094 11.557 4.37 10.572 3.904 C 10.223 3.739 10 3.387 10 3 C 10 2.735 9.894 2.481 9.707 2.293 C 9.519 2.105 9.265 2 9 2 Z M 13 16 C 13 17.061 12.578 18.078 11.828 18.828 C 11.125 19.531 10.187 19.946 9.198 19.995 L 9 20 C 7.939 20 6.922 19.578 6.172 18.828 C 5.422 18.078 5 17.061 5 16 L 1 16 C 0.546 16 0.149 15.694 0.033 15.255 C -0.083 14.816 0.112 14.354 0.507 14.13 C 0.915 13.898 1.265 13.574 1.525 13.184 C 1.777 12.806 1.938 12.375 2 11.926 L 2 9 C 2 8.984 2 8.969 2.001 8.953 C 2.069 7.503 2.531 6.099 3.336 4.891 C 4.037 3.839 4.975 2.97 6.072 2.354 C 6.195 1.799 6.471 1.286 6.879 0.879 C 7.441 0.316 8.204 0 9 0 L 9.297 0.015 C 9.983 0.083 10.629 0.387 11.121 0.879 C 11.529 1.286 11.804 1.799 11.927 2.354 C 13.024 2.97 13.963 3.839 14.664 4.891 C 15.469 6.099 15.931 7.503 15.999 8.953 C 16 8.969 16 8.984 16 9 L 16 11.926 C 16.061 12.375 16.223 12.806 16.475 13.184 C 16.735 13.574 17.084 13.898 17.493 14.13 C 17.888 14.354 18.082 14.816 17.967 15.255 C 17.851 15.694 17.454 16 17 16 L 13 16 Z" fill="currentColor" fill-rule="nonzero"></path>
</svg>