<svg xmlns="http://www.w3.org/2000/svg" width="16.000" height="20.002" viewBox="0 0 16.000 20.002" fill="none">
  <path d="M 9 0 L 9.018 0.001 L 9.034 0.002 L 9.117 0.007 L 9.128 0.009 L 9.139 0.009 L 9.177 0.018 L 9.229 0.026 L 9.245 0.032 L 9.256 0.033 L 9.285 0.044 L 9.337 0.058 L 9.356 0.067 L 9.371 0.071 L 9.399 0.085 L 9.439 0.102 L 9.46 0.114 L 9.482 0.124 L 9.505 0.139 L 9.536 0.156 L 9.57 0.18 L 9.588 0.191 L 9.601 0.203 L 9.625 0.22 L 9.663 0.254 L 9.685 0.271 L 9.693 0.281 L 9.707 0.293 L 9.743 0.334 L 9.769 0.361 L 9.775 0.37 C 9.895 0.517 9.971 0.692 9.993 0.883 L 9.994 0.895 L 9.996 0.936 L 10 1 L 10 7 L 15 7 C 15.176 7 15.348 7.046 15.5 7.133 C 15.651 7.221 15.778 7.347 15.866 7.498 C 15.954 7.65 16 7.822 16 7.997 C 16.001 8.173 15.955 8.345 15.868 8.497 L 15.808 8.588 L 7.808 19.588 C 7.24 20.371 6 19.968 6 19 L 6 13 L 1 13 C 0.825 13 0.653 12.954 0.501 12.867 C 0.349 12.779 0.223 12.653 0.135 12.502 C 0.047 12.35 0 12.178 0 12.003 C 0 11.827 0.045 11.655 0.132 11.503 L 0.192 11.412 L 8.192 0.412 L 8.202 0.399 L 8.22 0.375 L 8.253 0.337 L 8.271 0.315 L 8.28 0.307 L 8.293 0.293 L 8.333 0.257 L 8.361 0.231 L 8.369 0.225 C 8.486 0.129 8.624 0.061 8.771 0.026 L 8.782 0.025 L 8.809 0.02 L 8.883 0.007 L 8.894 0.006 L 8.935 0.004 L 9 0 Z" fill="currentColor" fill-rule="nonzero"></path>
</svg>