<svg xmlns="http://www.w3.org/2000/svg" width="20" height="16.206" viewBox="0 0 20 16.206" fill="none">
  <path d="M 14.5 0 C 16.255 0 17.98 0.462 19.5 1.34 C 19.809 1.518 20 1.849 20 2.206 L 20 15.206 C 20 15.563 19.809 15.894 19.5 16.072 C 19.191 16.251 18.809 16.251 18.5 16.072 C 17.284 15.37 15.904 15 14.5 15 C 13.096 15 11.716 15.37 10.5 16.072 C 10.191 16.251 9.809 16.251 9.5 16.072 C 8.284 15.37 6.904 15 5.5 15 C 4.096 15 2.716 15.37 1.5 16.072 C 1.191 16.251 0.809 16.251 0.5 16.072 C 0.191 15.894 0 15.563 0 15.206 L 0 2.206 C 0 1.849 0.191 1.518 0.5 1.34 C 2.02 0.462 3.745 0 5.5 0 C 7.066 0 8.607 0.368 10 1.07 C 11.393 0.368 12.934 0 14.5 0 Z M 5.237 2.004 C 4.113 2.041 3.01 2.315 2 2.807 L 2 13.632 C 3.115 13.215 4.301 13 5.5 13 C 6.699 13 7.885 13.215 9 13.632 L 9 2.807 C 7.912 2.277 6.715 2 5.5 2 L 5.237 2.004 Z M 14.5 2 C 13.285 2 12.088 2.277 11 2.807 L 11 13.632 C 12.115 13.215 13.301 13 14.5 13 C 15.699 13 16.885 13.215 18 13.632 L 18 2.807 C 16.912 2.277 15.715 2 14.5 2 Z" fill="currentColor" fill-rule="nonzero"></path>
</svg>