<svg xmlns="http://www.w3.org/2000/svg" width="16" height="18" viewBox="0 0 16 18" fill="none">
  <path d="M 15 0 C 15.552 0 16 0.448 16 1 L 16 17 C 16 17.552 15.552 18 15 18 L 3 18 C 2.204 18 1.442 17.684 0.879 17.121 C 0.316 16.558 0 15.796 0 15 L 0 3 C 0 2.204 0.316 1.442 0.879 0.879 C 1.442 0.316 2.204 0 3 0 L 15 0 Z M 11 4 C 11.552 4 12 4.448 12 5 C 12 5.552 11.552 6 11 6 L 5 6 C 4.448 6 4 5.552 4 5 C 4 4.448 4.448 4 5 4 L 11 4 Z M 2.005 15.099 C 2.028 15.328 2.129 15.543 2.293 15.707 C 2.481 15.895 2.735 16 3 16 L 14 16 L 14 14 L 3 14 C 2.735 14 2.481 14.105 2.293 14.293 C 2.105 14.481 2 14.735 2 15 L 2.005 15.099 Z M 2 12.175 C 2.319 12.062 2.656 12 3 12 L 14 12 L 14 2 L 3 2 C 2.735 2 2.481 2.105 2.293 2.293 C 2.105 2.481 2 2.735 2 3 L 2 12.175 Z" fill="currentColor" fill-rule="nonzero"></path>
</svg>