<svg xmlns="http://www.w3.org/2000/svg" width="20" height="19" viewBox="0 0 20 19" fill="none">
  <path d="M 18 12.553 C 15.467 13.597 12.75 14.14 10 14.14 C 7.25 14.14 4.533 13.597 2 12.553 L 2 16 C 2 16.265 2.105 16.519 2.293 16.707 C 2.481 16.895 2.735 17 3 17 L 17 17 C 17.265 17 17.519 16.895 17.707 16.707 C 17.895 16.519 18 16.265 18 16 L 18 12.553 Z M 9 10.01 L 9 10 C 9 9.448 9.448 9 10 9 C 10.552 9 11 9.448 11 10 L 11 10.01 C 11 10.562 10.552 11.01 10 11.01 C 9.448 11.01 9 10.562 9 10.01 Z M 18 7 C 18 6.735 17.895 6.481 17.707 6.293 C 17.543 6.129 17.328 6.028 17.099 6.005 L 17 6 L 3 6 C 2.735 6 2.481 6.105 2.293 6.293 C 2.105 6.481 2 6.735 2 7 L 2 10.371 C 4.504 11.534 7.234 12.14 10 12.14 C 12.766 12.14 15.496 11.534 18 10.371 L 18 7 Z M 13 3 C 13 2.735 12.895 2.481 12.707 2.293 C 12.519 2.105 12.265 2 12 2 L 8 2 C 7.735 2 7.481 2.105 7.293 2.293 C 7.105 2.481 7 2.735 7 3 L 7 4 L 13 4 L 13 3 Z M 15 4 L 17 4 C 17.796 4 18.558 4.316 19.121 4.879 C 19.684 5.442 20 6.204 20 7 L 20 16 C 20 16.796 19.684 17.558 19.121 18.121 C 18.558 18.684 17.796 19 17 19 L 3 19 C 2.204 19 1.442 18.684 0.879 18.121 C 0.316 17.558 0 16.796 0 16 L 0 7 C 0 6.204 0.316 5.442 0.879 4.879 C 1.442 4.316 2.204 4 3 4 L 5 4 L 5 3 C 5 2.204 5.316 1.442 5.879 0.879 C 6.442 0.316 7.204 0 8 0 L 12 0 C 12.796 0 13.558 0.316 14.121 0.879 C 14.684 1.442 15 2.204 15 3 L 15 4 Z" fill="currentColor" fill-rule="nonzero"></path>
</svg>