<svg xmlns="http://www.w3.org/2000/svg" width="20" height="21" viewBox="0 0 20 21" fill="none">
  <path d="M 15 20 L 15 18 L 13 18 C 12.448 18 12 17.552 12 17 C 12 16.448 12.448 16 13 16 L 15 16 L 15 14 C 15 13.448 15.448 13 16 13 C 16.552 13 17 13.448 17 14 L 17 16 L 19 16 C 19.552 16 20 16.448 20 17 C 20 17.552 19.552 18 19 18 L 17 18 L 17 20 C 17 20.552 16.552 21 16 21 C 15.448 21 15 20.552 15 20 Z M 12 5 L 12 4 L 6 4 L 6 5 C 6 5.552 5.552 6 5 6 C 4.448 6 4 5.552 4 5 L 4 4 L 3 4 C 2.735 4 2.481 4.105 2.293 4.293 C 2.105 4.481 2 4.735 2 5 L 2 8 L 16 8 L 16 5 C 16 4.735 15.895 4.481 15.707 4.293 C 15.519 4.105 15.265 4 15 4 L 14 4 L 14 5 C 14 5.552 13.552 6 13 6 C 12.448 6 12 5.552 12 5 Z M 18 10 C 18 10.552 17.552 11 17 11 C 16.448 11 16 10.552 16 10 L 2 10 L 2 17 C 2 17.265 2.105 17.519 2.293 17.707 C 2.481 17.895 2.735 18 3 18 L 9.5 18 C 10.052 18 10.5 18.448 10.5 19 C 10.5 19.552 10.052 20 9.5 20 L 3 20 C 2.204 20 1.442 19.684 0.879 19.121 C 0.316 18.558 0 17.796 0 17 L 0 5 C 0 4.204 0.316 3.442 0.879 2.879 C 1.442 2.316 2.204 2 3 2 L 4 2 L 4 1 C 4 0.448 4.448 0 5 0 C 5.552 0 6 0.448 6 1 L 6 2 L 12 2 L 12 1 C 12 0.448 12.448 0 13 0 C 13.552 0 14 0.448 14 1 L 14 2 L 15 2 C 15.796 2 16.558 2.316 17.121 2.879 C 17.684 3.442 18 4.204 18 5 L 18 10 Z" fill="currentColor" fill-rule="nonzero"></path>
</svg>