<svg xmlns="http://www.w3.org/2000/svg" width="20" height="20" viewBox="0 0 20 20" fill="none">
  <path d="M 17.99 9.606 C 17.945 8.69 17.742 7.788 17.391 6.938 C 16.989 5.968 16.4 5.086 15.657 4.343 C 14.914 3.6 14.032 3.011 13.062 2.609 C 12.212 2.258 11.31 2.055 10.394 2.01 L 10 2 C 8.949 2 7.909 2.207 6.938 2.609 C 5.968 3.011 5.086 3.6 4.343 4.343 C 3.6 5.086 3.011 5.968 2.609 6.938 C 2.207 7.909 2 8.949 2 10 L 2.01 10.394 C 2.055 11.31 2.258 12.212 2.609 13.062 C 3.011 14.032 3.6 14.914 4.343 15.657 C 5.086 16.4 5.968 16.989 6.938 17.391 C 7.909 17.793 8.949 18 10 18 L 10.394 17.99 C 11.31 17.945 12.212 17.742 13.062 17.391 C 14.032 16.989 14.914 16.4 15.657 15.657 C 16.4 14.914 16.989 14.032 17.391 13.062 C 17.793 12.091 18 11.051 18 10 L 17.99 9.606 Z M 9 5 C 9 4.448 9.448 4 10 4 C 10.552 4 11 4.448 11 5 L 11 9 L 13.5 9 C 14.052 9 14.5 9.448 14.5 10 C 14.5 10.552 14.052 11 13.5 11 L 10 11 C 9.448 11 9 10.552 9 10 L 9 5 Z M 19.988 10.492 C 19.932 11.637 19.679 12.766 19.239 13.827 C 18.737 15.04 18 16.143 17.071 17.071 C 16.143 18 15.04 18.737 13.827 19.239 C 12.766 19.679 11.637 19.932 10.492 19.988 L 10 20 C 8.687 20 7.386 19.742 6.173 19.239 C 4.96 18.737 3.857 18 2.929 17.071 C 2 16.143 1.263 15.04 0.761 13.827 C 0.321 12.766 0.068 11.637 0.012 10.492 L 0 10 C 0 8.687 0.258 7.386 0.761 6.173 C 1.263 4.96 2 3.857 2.929 2.929 C 3.857 2 4.96 1.263 6.173 0.761 C 7.386 0.258 8.687 0 10 0 L 10.492 0.012 C 11.637 0.068 12.766 0.321 13.827 0.761 C 15.04 1.263 16.143 2 17.071 2.929 C 18 3.857 18.737 4.96 19.239 6.173 C 19.742 7.386 20 8.687 20 10 L 19.988 10.492 Z" fill="currentColor" fill-rule="nonzero"></path>
</svg>