<svg xmlns="http://www.w3.org/2000/svg" width="18" height="4" viewBox="0 0 18 4" fill="none">
  <path d="M 0 2 C 0 1.47 0.211 0.961 0.586 0.586 C 0.961 0.211 1.47 0 2 0 C 2.53 0 3.039 0.211 3.414 0.586 C 3.789 0.961 4 1.47 4 2 C 4 2.53 3.789 3.039 3.414 3.414 C 3.039 3.789 2.53 4 2 4 C 1.47 4 0.961 3.789 0.586 3.414 C 0.211 3.039 0 2.53 0 2 Z M 7 2 C 7 1.47 7.211 0.961 7.586 0.586 C 7.961 0.211 8.47 0 9 0 C 9.53 0 10.039 0.211 10.414 0.586 C 10.789 0.961 11 1.47 11 2 C 11 2.53 10.789 3.039 10.414 3.414 C 10.039 3.789 9.53 4 9 4 C 8.47 4 7.961 3.789 7.586 3.414 C 7.211 3.039 7 2.53 7 2 Z M 14 2 C 14 1.47 14.211 0.961 14.586 0.586 C 14.961 0.211 15.47 0 16 0 C 16.53 0 17.039 0.211 17.414 0.586 C 17.789 0.961 18 1.47 18 2 C 18 2.53 17.789 3.039 17.414 3.414 C 17.039 3.789 16.53 4 16 4 C 15.47 4 14.961 3.789 14.586 3.414 C 14.211 3.039 14 2.53 14 2 Z" fill="currentColor" fill-rule="nonzero"></path>
</svg>