<svg xmlns="http://www.w3.org/2000/svg" width="20.000" height="10.000" viewBox="0 0 20.000 10.000" fill="none">
  <path d="M 0.331 0.257 C 0.741 -0.113 1.374 -0.08 1.743 0.331 C 3.953 2.786 6.682 4 10 4 C 13.318 4 16.047 2.786 18.257 0.331 C 18.626 -0.08 19.258 -0.113 19.669 0.257 C 20.079 0.626 20.112 1.258 19.743 1.669 C 19.149 2.329 18.518 2.913 17.853 3.423 L 19.835 6.425 C 20.139 6.886 20.012 7.506 19.551 7.81 C 19.09 8.115 18.469 7.987 18.165 7.526 L 16.175 4.511 C 15.352 4.953 14.486 5.297 13.575 5.543 L 13.992 8.876 C 14.061 9.424 13.672 9.924 13.124 9.992 C 12.576 10.061 12.076 9.672 12.008 9.124 L 11.605 5.911 C 11.082 5.969 10.547 6 10 6 C 9.452 6 8.917 5.969 8.393 5.911 L 7.992 9.124 C 7.924 9.672 7.424 10.061 6.876 9.992 C 6.328 9.924 5.939 9.424 6.008 8.876 L 6.424 5.543 C 5.516 5.298 4.651 4.955 3.831 4.515 L 1.835 7.55 C 1.531 8.011 0.911 8.138 0.45 7.835 C -0.011 7.531 -0.139 6.911 0.165 6.45 L 2.152 3.428 C 1.485 2.917 0.853 2.331 0.257 1.669 C -0.113 1.258 -0.08 0.626 0.331 0.257 Z" fill="currentColor" fill-rule="nonzero"></path>
</svg>