<svg xmlns="http://www.w3.org/2000/svg" width="20.000" height="14" viewBox="0 0 20.000 14" fill="none">
  <path d="M 10 0 C 14.055 0 17.338 2.286 19.857 6.485 C 20.047 6.802 20.047 7.198 19.857 7.515 C 17.338 11.714 14.055 14 10 14 C 5.944 14 2.662 11.714 0.143 7.515 C -0.048 7.198 -0.048 6.802 0.143 6.485 C 2.662 2.286 5.944 0 10 0 Z M 10 2 C 7.001 2 4.391 3.559 2.178 7 C 4.391 10.441 7.001 12 10 12 C 12.999 12 15.608 10.441 17.821 7 C 15.608 3.559 12.999 2 10 2 Z M 11 7 C 11 6.735 10.894 6.481 10.707 6.293 C 10.519 6.105 10.265 6 10 6 C 9.735 6 9.48 6.105 9.293 6.293 C 9.105 6.481 9 6.735 9 7 C 9 7.265 9.105 7.519 9.293 7.707 C 9.48 7.895 9.735 8 10 8 C 10.265 8 10.519 7.895 10.707 7.707 C 10.894 7.519 11 7.265 11 7 Z M 13 7 C 13 7.796 12.684 8.558 12.121 9.121 C 11.558 9.684 10.796 10 10 10 C 9.204 10 8.441 9.684 7.879 9.121 C 7.316 8.558 7 7.796 7 7 C 7 6.204 7.316 5.442 7.879 4.879 C 8.441 4.316 9.204 4 10 4 C 10.796 4 11.558 4.316 12.121 4.879 C 12.684 5.442 13 6.204 13 7 Z" fill="currentColor" fill-rule="nonzero"></path>
</svg>