<svg xmlns="http://www.w3.org/2000/svg" width="24" height="24" viewBox="0 0 24 24" fill="currentColor"><g transform="translate(3,5)"><path d="M 12 12 C 12.552 12 13 12.448 13 13 C 13 13.552 12.552 14 12 14 L 6 14 C 5.448 14 5 13.552 5 13 C 5 12.448 5.448 12 6 12 L 12 12 Z M 15 6 C 15.552 6 16 6.448 16 7 C 16 7.552 15.552 8 15 8 L 3 8 C 2.448 8 2 7.552 2 7 C 2 6.448 2.448 6 3 6 L 15 6 Z M 17 0 C 17.552 0 18 0.448 18 1 C 18 1.552 17.552 2 17 2 L 1 2 C 0.448 2 0 1.552 0 1 C 0 0.448 0.448 0 1 0 L 17 0 Z"></path></g></svg>