<svg xmlns="http://www.w3.org/2000/svg" width="16" height="21.002" viewBox="0 0 16 21.002" fill="none">
  <path d="M 6 1.002 C 6 0.122 7.056 -0.329 7.692 0.28 C 9.65 2.156 10.788 6.275 9.442 9.4 L 9.362 9.574 L 9.374 9.577 C 9.999 9.71 10.577 9.147 11.677 7.404 L 11.817 7.18 C 11.898 7.049 12.008 6.939 12.139 6.858 C 12.27 6.777 12.417 6.727 12.57 6.712 C 12.723 6.697 12.878 6.718 13.021 6.773 C 13.165 6.827 13.294 6.914 13.399 7.027 C 14.733 8.462 16 11.404 16 13.297 C 16 17.562 12.409 21.002 8 21.002 C 3.591 21.002 0 17.562 0 13.296 C 0 11.044 1.022 8.58 2.632 6.995 L 3.237 6.406 C 3.478 6.17 3.671 5.976 3.855 5.782 C 5.285 4.27 6 2.858 6 1.002 Z" fill="currentColor" fill-rule="nonzero"></path>
</svg>