<svg xmlns="http://www.w3.org/2000/svg" width="18" height="18" viewBox="0 0 18 18" fill="none">
  <path d="M 2 12 L 2 16 L 6 16 L 6 12 L 2 12 Z M 12 12 L 12 16 L 16 16 L 16 12 L 12 12 Z M 2 2 L 2 6 L 6 6 L 6 2 L 2 2 Z M 12 2 L 12 6 L 16 6 L 16 2 L 12 2 Z M 8 16 C 8 16.53 7.789 17.039 7.414 17.414 C 7.039 17.789 6.53 18 6 18 L 2 18 C 1.47 18 0.961 17.789 0.586 17.414 C 0.211 17.039 0 16.53 0 16 L 0 12 C 0 11.47 0.211 10.961 0.586 10.586 C 0.961 10.211 1.47 10 2 10 L 6 10 C 6.53 10 7.039 10.211 7.414 10.586 C 7.789 10.961 8 11.47 8 12 L 8 16 Z M 18 16 C 18 16.53 17.789 17.039 17.414 17.414 C 17.039 17.789 16.53 18 16 18 L 12 18 C 11.47 18 10.961 17.789 10.586 17.414 C 10.211 17.039 10 16.53 10 16 L 10 12 C 10 11.47 10.211 10.961 10.586 10.586 C 10.961 10.211 11.47 10 12 10 L 16 10 C 16.53 10 17.039 10.211 17.414 10.586 C 17.789 10.961 18 11.47 18 12 L 18 16 Z M 8 6 C 8 6.53 7.789 7.039 7.414 7.414 C 7.039 7.789 6.53 8 6 8 L 2 8 C 1.47 8 0.961 7.789 0.586 7.414 C 0.211 7.039 0 6.53 0 6 L 0 2 C 0 1.47 0.211 0.961 0.586 0.586 C 0.961 0.211 1.47 0 2 0 L 6 0 C 6.53 0 7.039 0.211 7.414 0.586 C 7.789 0.961 8 1.47 8 2 L 8 6 Z M 18 6 C 18 6.53 17.789 7.039 17.414 7.414 C 17.039 7.789 16.53 8 16 8 L 12 8 C 11.47 8 10.961 7.789 10.586 7.414 C 10.211 7.039 10 6.53 10 6 L 10 2 C 10 1.47 10.211 0.961 10.586 0.586 C 10.961 0.211 11.47 0 12 0 L 16 0 C 16.53 0 17.039 0.211 17.414 0.586 C 17.789 0.961 18 1.47 18 2 L 18 6 Z" fill="currentColor" fill-rule="nonzero"></path>
</svg>