<svg xmlns="http://www.w3.org/2000/svg" width="20" height="18" viewBox="0 0 20 18" fill="none">
  <path d="M 15.293 5.293 C 15.683 4.902 16.317 4.902 16.707 5.293 L 19.707 8.293 C 20.098 8.683 20.098 9.317 19.707 9.707 L 16.707 12.707 C 16.317 13.098 15.683 13.098 15.293 12.707 C 14.902 12.317 14.902 11.683 15.293 11.293 L 16.586 10 L 7 10 C 6.448 10 6 9.552 6 9 C 6 8.448 6.448 8 7 8 L 16.586 8 L 15.293 6.707 C 14.902 6.317 14.902 5.683 15.293 5.293 Z M 11 5 L 11 3 C 11 2.735 10.895 2.481 10.707 2.293 C 10.543 2.129 10.328 2.028 10.099 2.005 L 10 2 L 3 2 C 2.735 2 2.481 2.105 2.293 2.293 C 2.105 2.481 2 2.735 2 3 L 2 15 C 2 15.265 2.105 15.519 2.293 15.707 C 2.481 15.895 2.735 16 3 16 L 10 16 C 10.265 16 10.519 15.895 10.707 15.707 C 10.895 15.519 11 15.265 11 15 L 11 13 C 11 12.448 11.448 12 12 12 C 12.552 12 13 12.448 13 13 L 13 15 C 13 15.796 12.684 16.558 12.121 17.121 C 11.558 17.684 10.796 18 10 18 L 3 18 C 2.204 18 1.442 17.684 0.879 17.121 C 0.316 16.558 0 15.796 0 15 L 0 3 C 0 2.204 0.316 1.442 0.879 0.879 C 1.442 0.316 2.204 0 3 0 L 10 0 C 10.796 0 11.558 0.316 12.121 0.879 C 12.684 1.442 13 2.204 13 3 L 13 5 C 13 5.552 12.552 6 12 6 C 11.448 6 11 5.552 11 5 Z" fill="currentColor" fill-rule="nonzero"></path>
</svg>