<svg xmlns="http://www.w3.org/2000/svg" width="20.014" height="18.021" viewBox="0 0 20.014 18.021" fill="none">
  <path d="M 4.191 1.681 C 8.061 -0.814 13.397 -0.515 16.893 2.466 C 20.549 5.585 21.071 10.693 18.046 14.364 C 15.138 17.892 9.872 18.975 5.583 17.067 L 1.208 17.999 C 0.857 18.073 0.493 17.955 0.254 17.687 C 0.015 17.42 -0.062 17.045 0.051 16.705 L 1.201 13.253 C -1.096 9.402 0.025 4.625 3.821 1.931 L 4.191 1.681 Z M 15.595 3.988 C 12.694 1.514 8.136 1.322 4.978 3.562 C 1.864 5.772 1.129 9.605 3.128 12.561 C 3.302 12.819 3.347 13.142 3.249 13.437 L 2.501 15.678 L 5.492 15.043 L 5.656 15.022 C 5.821 15.015 5.986 15.049 6.136 15.122 C 9.71 16.856 14.15 15.945 16.502 13.091 C 18.809 10.292 18.45 6.423 15.595 3.988 Z" fill="currentColor" fill-rule="nonzero"></path>
</svg>