<svg xmlns="http://www.w3.org/2000/svg" width="18" height="18" viewBox="0 0 18 18" fill="none">
  <path d="M 14 4 L 14 15 C 14 15.265 14.105 15.519 14.293 15.707 C 14.481 15.895 14.735 16 15 16 C 15.265 16 15.519 15.895 15.707 15.707 C 15.895 15.519 16 15.265 16 15 L 16 4 L 14 4 Z M 9 12 C 9.552 12 10 12.448 10 13 C 10 13.552 9.552 14 9 14 L 5 14 C 4.448 14 4 13.552 4 13 C 4 12.448 4.448 12 5 12 L 9 12 Z M 9 8 C 9.552 8 10 8.448 10 9 C 10 9.552 9.552 10 9 10 L 5 10 C 4.448 10 4 9.552 4 9 C 4 8.448 4.448 8 5 8 L 9 8 Z M 9 4 C 9.552 4 10 4.448 10 5 C 10 5.552 9.552 6 9 6 L 5 6 C 4.448 6 4 5.552 4 5 C 4 4.448 4.448 4 5 4 L 9 4 Z M 2 2 L 2 14 C 2 14.53 2.211 15.039 2.586 15.414 C 2.961 15.789 3.47 16 4 16 L 12.176 16 C 12.063 15.681 12 15.344 12 15 L 12 2 L 2 2 Z M 16 2 C 16.53 2 17.039 2.211 17.414 2.586 C 17.789 2.961 18 3.47 18 4 L 18 15 C 18 15.796 17.684 16.558 17.121 17.121 C 16.558 17.684 15.796 18 15 18 L 4 18 C 2.939 18 1.922 17.578 1.172 16.828 C 0.422 16.078 0 15.061 0 14 L 0 2 C 0 1.47 0.211 0.961 0.586 0.586 C 0.961 0.211 1.47 0 2 0 L 12 0 C 12.53 0 13.039 0.211 13.414 0.586 C 13.789 0.961 14 1.47 14 2 L 16 2 Z" fill="currentColor" fill-rule="nonzero"></path>
</svg>