<svg xmlns="http://www.w3.org/2000/svg" width="17.328" height="17.328" viewBox="0 0 17.328 17.328" fill="none">
  <path d="M 15.328 3.828 C 15.328 3.588 15.281 3.351 15.189 3.129 C 15.098 2.907 14.963 2.705 14.793 2.535 C 14.623 2.366 14.422 2.232 14.2 2.14 C 13.978 2.048 13.74 2 13.5 2 C 13.26 2 13.022 2.048 12.8 2.14 C 12.578 2.232 12.377 2.366 12.207 2.535 L 11.914 2.828 L 14.5 5.414 L 14.793 5.121 C 14.963 4.951 15.098 4.75 15.189 4.528 C 15.281 4.306 15.328 4.068 15.328 3.828 Z M 2 12.742 L 2 15.328 L 4.586 15.328 L 13.086 6.828 L 10.5 4.242 L 2 12.742 Z M 17.328 3.828 C 17.328 4.331 17.23 4.829 17.037 5.294 C 16.845 5.758 16.562 6.18 16.207 6.535 L 5.707 17.035 C 5.519 17.223 5.265 17.328 5 17.328 L 1 17.328 C 0.448 17.328 0 16.88 0 16.328 L 0 12.328 L 0.005 12.229 C 0.028 12.001 0.129 11.785 0.293 11.621 L 10.793 1.121 C 11.148 0.766 11.571 0.483 12.035 0.291 C 12.5 0.099 12.997 0 13.5 0 C 14.003 0 14.5 0.099 14.965 0.291 C 15.429 0.483 15.852 0.766 16.207 1.121 C 16.563 1.477 16.845 1.899 17.037 2.363 C 17.229 2.828 17.328 3.325 17.328 3.828 Z" fill="currentColor" fill-rule="nonzero"></path>
</svg>