<svg xmlns="http://www.w3.org/2000/svg" width="22.000" height="21.215" viewBox="0 0 22.000 21.215" fill="none">
  <path d="M 11 0 C 11.629 0 12.242 0.199 12.751 0.569 L 20.771 6.396 C 21.815 7.155 22.253 8.5 21.854 9.728 L 18.79 19.157 C 18.596 19.755 18.217 20.277 17.708 20.646 C 17.2 21.016 16.587 21.215 15.958 21.215 L 6.042 21.215 C 5.413 21.215 4.8 21.016 4.291 20.646 C 3.783 20.277 3.404 19.755 3.21 19.157 L 0.146 9.728 L 0.082 9.501 C -0.045 8.969 -0.025 8.409 0.146 7.886 C 0.316 7.362 0.628 6.898 1.044 6.542 L 1.229 6.396 L 9.249 0.569 L 9.444 0.438 C 9.911 0.153 10.45 0 11 0 Z M 11 2 C 10.794 2 10.592 2.065 10.425 2.187 L 10.425 2.188 L 2.403 8.015 L 2.403 8.016 C 2.237 8.137 2.112 8.308 2.048 8.504 C 2 8.651 1.988 8.807 2.012 8.959 L 2.048 9.109 L 5.112 18.539 L 5.171 18.682 C 5.241 18.818 5.342 18.937 5.467 19.028 C 5.634 19.15 5.836 19.215 6.042 19.215 L 15.958 19.215 C 16.164 19.215 16.365 19.15 16.532 19.028 C 16.699 18.907 16.824 18.735 16.888 18.539 L 19.952 9.109 L 19.952 9.108 C 20.083 8.706 19.94 8.265 19.597 8.016 L 19.596 8.015 L 11.575 2.188 L 11.575 2.187 C 11.408 2.065 11.207 2 11 2 Z" fill="currentColor" fill-rule="nonzero"></path>
</svg>