<svg xmlns="http://www.w3.org/2000/svg" width="20" height="20" viewBox="0 0 20 20" fill="none">
  <path d="M 13.993 7.705 C 13.959 7.018 13.807 6.341 13.543 5.704 C 13.241 4.976 12.799 4.315 12.242 3.758 C 11.685 3.201 11.024 2.759 10.296 2.457 C 9.659 2.193 8.982 2.041 8.295 2.007 L 8 2 C 7.212 2 6.432 2.156 5.704 2.457 C 4.976 2.759 4.315 3.201 3.758 3.758 C 3.201 4.315 2.759 4.976 2.457 5.704 C 2.156 6.432 2 7.212 2 8 L 2.007 8.295 C 2.041 8.982 2.193 9.659 2.457 10.296 C 2.759 11.024 3.201 11.685 3.758 12.242 C 4.315 12.799 4.976 13.241 5.704 13.543 C 6.432 13.844 7.212 14 8 14 C 8.788 14 9.568 13.844 10.296 13.543 C 11.024 13.241 11.685 12.799 12.242 12.242 C 12.799 11.685 13.241 11.024 13.543 10.296 C 13.844 9.568 14 8.788 14 8 L 13.993 7.705 Z M 15.99 8.394 C 15.945 9.31 15.742 10.212 15.391 11.062 C 15.117 11.722 14.754 12.341 14.317 12.903 L 19.707 18.293 C 20.098 18.683 20.098 19.317 19.707 19.707 C 19.317 20.098 18.683 20.098 18.293 19.707 L 12.903 14.317 C 12.341 14.754 11.722 15.117 11.062 15.391 C 10.091 15.793 9.051 16 8 16 C 6.949 16 5.909 15.793 4.938 15.391 C 3.968 14.989 3.086 14.4 2.343 13.657 C 1.6 12.914 1.011 12.032 0.609 11.062 C 0.258 10.212 0.055 9.31 0.01 8.394 L 0 8 C 0 6.949 0.207 5.909 0.609 4.938 C 1.011 3.968 1.6 3.086 2.343 2.343 C 3.086 1.6 3.968 1.011 4.938 0.609 C 5.909 0.207 6.949 0 8 0 L 8.394 0.01 C 9.31 0.055 10.212 0.258 11.062 0.609 C 12.032 1.011 12.914 1.6 13.657 2.343 C 14.4 3.086 14.989 3.968 15.391 4.938 C 15.793 5.909 16 6.949 16 8 L 15.99 8.394 Z" fill="currentColor" fill-rule="nonzero"></path>
</svg>