<svg xmlns="http://www.w3.org/2000/svg" width="20.321" height="20.321" viewBox="0 0 20.321 20.321" fill="none">
  <path d="M 18.981 0.059 C 19.346 -0.072 19.754 0.019 20.028 0.293 C 20.302 0.567 20.393 0.975 20.262 1.34 L 13.762 19.34 C 13.752 19.366 13.741 19.392 13.729 19.417 C 13.606 19.686 13.408 19.915 13.158 20.075 C 12.909 20.235 12.618 20.321 12.321 20.321 C 12.024 20.321 11.733 20.235 11.483 20.075 C 11.243 19.921 11.051 19.703 10.927 19.446 L 10.927 19.447 L 7.575 12.745 L 0.874 9.394 L 0.875 9.393 C 0.618 9.269 0.399 9.077 0.245 8.837 C 0.085 8.587 0 8.297 0 8 C 0 7.703 0.085 7.413 0.245 7.163 L 0.309 7.071 C 0.463 6.864 0.668 6.699 0.904 6.591 C 0.929 6.579 0.955 6.569 0.981 6.559 L 18.981 0.059 Z M 9.537 12.197 L 12.252 17.628 L 16.856 4.879 L 9.537 12.197 Z M 2.692 8.067 L 8.123 10.782 L 15.442 3.463 L 2.692 8.067 Z" fill="currentColor" fill-rule="nonzero"></path>
</svg>