<svg xmlns="http://www.w3.org/2000/svg" width="20.000" height="20.000" viewBox="0 0 20.000 20.000" fill="none">
  <path d="M 7.426 1.829 C 8.27 -0.691 11.994 -0.607 12.646 2.081 C 12.673 2.192 12.727 2.295 12.801 2.382 C 12.875 2.468 12.968 2.536 13.073 2.58 C 13.178 2.624 13.293 2.642 13.406 2.633 C 13.52 2.624 13.63 2.589 13.727 2.529 L 13.957 2.402 C 16.336 1.218 18.91 3.91 17.472 6.273 C 17.413 6.371 17.377 6.48 17.368 6.594 C 17.359 6.707 17.378 6.821 17.422 6.927 C 17.465 7.032 17.533 7.125 17.619 7.199 C 17.706 7.273 17.808 7.327 17.919 7.353 L 18.171 7.426 C 20.691 8.27 20.607 11.994 17.919 12.646 C 17.808 12.673 17.705 12.727 17.618 12.801 C 17.532 12.875 17.463 12.968 17.42 13.073 C 17.376 13.178 17.358 13.293 17.367 13.406 C 17.374 13.491 17.395 13.575 17.431 13.652 L 17.471 13.727 C 18.956 16.166 16.166 18.957 13.726 17.472 C 13.629 17.413 13.52 17.377 13.406 17.368 C 13.293 17.359 13.178 17.378 13.073 17.422 C 12.968 17.465 12.875 17.533 12.801 17.619 C 12.745 17.684 12.701 17.758 12.672 17.838 L 12.646 17.919 C 11.973 20.694 8.027 20.694 7.353 17.919 C 7.327 17.808 7.273 17.705 7.199 17.618 C 7.125 17.532 7.032 17.463 6.927 17.42 C 6.821 17.376 6.707 17.358 6.594 17.367 C 6.508 17.374 6.425 17.395 6.348 17.431 L 6.272 17.471 C 3.834 18.956 1.043 16.166 2.528 13.727 L 2.568 13.651 C 2.604 13.574 2.625 13.491 2.632 13.406 C 2.641 13.293 2.622 13.178 2.578 13.073 C 2.535 12.968 2.467 12.875 2.381 12.801 C 2.316 12.745 2.242 12.701 2.162 12.672 L 2.081 12.646 C -0.694 11.973 -0.694 8.027 2.081 7.353 C 2.192 7.327 2.295 7.273 2.382 7.199 C 2.468 7.125 2.536 7.032 2.58 6.927 C 2.624 6.821 2.642 6.707 2.633 6.594 C 2.626 6.508 2.605 6.425 2.569 6.348 L 2.529 6.272 C 1.044 3.835 3.833 1.044 6.271 2.527 L 6.272 2.527 C 6.694 2.784 7.237 2.558 7.353 2.081 L 7.426 1.829 Z M 10.703 2.553 C 10.524 1.816 9.476 1.816 9.297 2.553 L 9.297 2.554 C 8.874 4.29 6.938 5.142 5.383 4.321 L 5.233 4.236 C 4.585 3.841 3.843 4.584 4.237 5.231 L 4.236 5.231 C 4.459 5.597 4.594 6.011 4.627 6.438 C 4.66 6.866 4.592 7.296 4.428 7.692 C 4.264 8.088 4.008 8.44 3.683 8.719 C 3.397 8.963 3.065 9.145 2.707 9.255 L 2.553 9.297 C 1.816 9.476 1.816 10.524 2.553 10.703 L 2.554 10.703 C 2.97 10.804 3.356 11.003 3.682 11.281 C 4.007 11.56 4.263 11.912 4.427 12.308 C 4.591 12.704 4.659 13.133 4.626 13.561 C 4.593 13.988 4.459 14.402 4.236 14.768 C 3.842 15.416 4.584 16.157 5.231 15.763 C 5.597 15.54 6.011 15.406 6.438 15.373 C 6.866 15.34 7.296 15.408 7.692 15.572 C 8.088 15.736 8.44 15.992 8.719 16.317 C 8.997 16.643 9.196 17.031 9.297 17.447 L 9.34 17.577 C 9.603 18.181 10.535 18.138 10.703 17.447 L 10.703 17.446 C 10.804 17.03 11.003 16.644 11.281 16.318 C 11.56 15.993 11.912 15.737 12.308 15.573 C 12.704 15.409 13.133 15.341 13.56 15.374 C 13.988 15.407 14.402 15.541 14.768 15.764 C 15.416 16.158 16.157 15.416 15.763 14.769 L 15.763 14.768 C 15.54 14.402 15.406 13.989 15.373 13.561 C 15.34 13.134 15.408 12.704 15.572 12.308 C 15.736 11.912 15.992 11.56 16.317 11.281 C 16.643 11.002 17.03 10.804 17.447 10.703 L 17.577 10.66 C 18.181 10.397 18.138 9.464 17.447 9.297 L 17.446 9.297 C 17.03 9.196 16.644 8.997 16.318 8.719 C 15.993 8.44 15.737 8.088 15.573 7.692 C 15.409 7.296 15.341 6.867 15.374 6.439 C 15.407 6.012 15.541 5.598 15.764 5.232 C 16.158 4.584 15.416 3.843 14.768 4.237 L 14.768 4.236 C 14.402 4.459 13.989 4.594 13.561 4.627 C 13.134 4.66 12.704 4.592 12.308 4.428 C 11.912 4.264 11.56 4.008 11.281 3.683 C 11.037 3.397 10.854 3.065 10.745 2.707 L 10.703 2.553 Z M 12 10 C 12 9.47 11.789 8.961 11.414 8.586 C 11.039 8.211 10.53 8 10 8 C 9.47 8 8.961 8.211 8.586 8.586 C 8.211 8.961 8 9.47 8 10 C 8 10.53 8.211 11.039 8.586 11.414 C 8.961 11.789 9.47 12 10 12 C 10.53 12 11.039 11.789 11.414 11.414 C 11.789 11.039 12 10.53 12 10 Z M 14 10 C 14 11.061 13.578 12.078 12.828 12.828 C 12.078 13.578 11.061 14 10 14 C 8.939 14 7.922 13.578 7.172 12.828 C 6.422 12.078 6 11.061 6 10 C 6 8.939 6.422 7.922 7.172 7.172 C 7.922 6.422 8.939 6 10 6 C 11.061 6 12.078 6.422 12.828 7.172 C 13.578 7.922 14 8.939 14 10 Z" fill="currentColor" fill-rule="nonzero"></path>
</svg>