<svg xmlns="http://www.w3.org/2000/svg" width="18" height="18" viewBox="0 0 18 18" fill="none">
  <path d="M 16 3 C 16 2.735 15.895 2.481 15.707 2.293 C 15.519 2.105 15.265 2 15 2 L 7 2 L 7 16 L 15 16 C 15.265 16 15.519 15.895 15.707 15.707 C 15.895 15.519 16 15.265 16 15 L 16 3 Z M 2 15 C 2 15.265 2.105 15.519 2.293 15.707 C 2.481 15.895 2.735 16 3 16 L 5 16 L 5 2 L 3 2 C 2.735 2 2.481 2.105 2.293 2.293 C 2.105 2.481 2 2.735 2 3 L 2 15 Z M 18 15 C 18 15.796 17.684 16.558 17.121 17.121 C 16.558 17.684 15.796 18 15 18 L 3 18 C 2.204 18 1.442 17.684 0.879 17.121 C 0.316 16.558 0 15.796 0 15 L 0 3 C 0 2.204 0.316 1.442 0.879 0.879 C 1.442 0.316 2.204 0 3 0 L 15 0 C 15.796 0 16.558 0.316 17.121 0.879 C 17.684 1.442 18 2.204 18 3 L 18 15 Z" fill="currentColor" fill-rule="nonzero"></path>
</svg>