<svg xmlns="http://www.w3.org/2000/svg" width="14" height="20" viewBox="0 0 14 20" fill="none">
  <path d="M 12 19 L 12 17 C 12 16.204 11.684 15.442 11.121 14.879 C 10.558 14.316 9.796 14 9 14 L 5 14 C 4.204 14 3.442 14.316 2.879 14.879 C 2.316 15.442 2 16.204 2 17 L 2 19 C 2 19.552 1.552 20 1 20 C 0.448 20 0 19.552 0 19 L 0 17 C 0 15.674 0.527 14.403 1.465 13.465 C 2.403 12.527 3.674 12 5 12 L 9 12 C 10.326 12 11.597 12.527 12.535 13.465 C 13.473 14.403 14 15.674 14 17 L 14 19 C 14 19.552 13.552 20 13 20 C 12.448 20 12 19.552 12 19 Z M 10 5 C 10 4.204 9.684 3.442 9.121 2.879 C 8.558 2.316 7.796 2 7 2 C 6.204 2 5.442 2.316 4.879 2.879 C 4.316 3.442 4 4.204 4 5 C 4 5.796 4.316 6.558 4.879 7.121 C 5.442 7.684 6.204 8 7 8 C 7.796 8 8.558 7.684 9.121 7.121 C 9.684 6.558 10 5.796 10 5 Z M 12 5 C 12 6.326 11.473 7.597 10.535 8.535 C 9.597 9.473 8.326 10 7 10 C 5.674 10 4.403 9.473 3.465 8.535 C 2.527 7.597 2 6.326 2 5 C 2 3.674 2.527 2.403 3.465 1.465 C 4.403 0.527 5.674 0 7 0 C 8.326 0 9.597 0.527 10.535 1.465 C 11.473 2.403 12 3.674 12 5 Z" fill="currentColor" fill-rule="nonzero"></path>
</svg>