<svg xmlns="http://www.w3.org/2000/svg" width="14.000" height="14.000" viewBox="0 0 14.000 14.000" fill="none">
  <path d="M 12.293 0.293 C 12.683 -0.098 13.316 -0.098 13.707 0.293 C 14.097 0.683 14.097 1.316 13.707 1.707 L 8.414 7 L 13.707 12.293 C 14.097 12.683 14.097 13.316 13.707 13.707 C 13.316 14.097 12.683 14.097 12.293 13.707 L 7 8.414 L 1.707 13.707 C 1.316 14.097 0.683 14.097 0.293 13.707 C -0.098 13.316 -0.098 12.683 0.293 12.293 L 5.586 7 L 0.293 1.707 C -0.098 1.316 -0.098 0.683 0.293 0.293 C 0.683 -0.098 1.316 -0.098 1.707 0.293 L 7 5.586 L 12.293 0.293 Z" fill="currentColor" fill-rule="nonzero"></path>
</svg>